<svg xmlns="http://www.w3.org/2000/svg" viewBox="0 0 99.55 29.38">
    <defs>
        <style>.fill-color { fill: #ffffff; fill-rule: evenodd; }</style>
    </defs>
    <title>Selina Logo</title>
    <path class="cls-1" d="M99.08,24.29a3.57,3.57,0,0,1-2.38.89,1.64,1.64,0,0,1-1.34-1.74c0-.26.07-.54.13-.88L98.17,10a.37.37,0,0,0-.36-.44H93.1a.46.46,0,0,0-.44.36l-.3,1.34a3.15,3.15,0,0,0-3.15-1.88c-6.37,0-9.56,7.45-9.84,12.6-.73,1.39-2.18,3.16-3.46,3.16s-1.54-.65-1.54-1.59c0-2.14,1.84-6.75,1.84-9.83S74.42,9.45,72,9.45a5.71,5.71,0,0,0-4.49,2.13L67.8,10a.37.37,0,0,0-.37-.45H62.79a.53.53,0,0,0-.51.41L59.86,21.37c-1.64,2.35-3,3.8-4.51,3.79a1.6,1.6,0,0,1-1.56-1.71,4.29,4.29,0,0,1,.15-.91l2.63-12.35a.49.49,0,0,0-.49-.6H51.56a.45.45,0,0,0-.46.37L48.63,21.47c-1.67,2.29-3,3.71-4.53,3.7a1.61,1.61,0,0,1-1.55-1.71,6.33,6.33,0,0,1,.15-.91L47,2.53a.39.39,0,0,0-.43-.47l-4.68.62a.64.64,0,0,0-.53.5L37.73,20c-2.64,3.84-5.23,5.56-8.23,5.56a2.73,2.73,0,0,1-2.74-3.05c0-.76.07-1.41.07-1.43l.41,0h.05l.22,0a10.43,10.43,0,0,0,1.57-.33l.08,0c3.59-1.09,6.43-4.08,6.43-7.7,0-1.91-1.13-3.66-4.14-3.66-6.12,0-9,5.55-10,10.08H19.74c-.46-7.63-8.7-8.57-8.7-14A3.29,3.29,0,0,1,14.55,2a2.8,2.8,0,0,1,2.86,2.62,3.26,3.26,0,0,1-.95,2.63.33.33,0,0,0,.08.51A2.55,2.55,0,0,0,17.93,8,3.18,3.18,0,0,0,20,7.11,3.13,3.13,0,0,0,21,4.77C21,.94,16.22,0,14.42,0,9.47,0,5.55,2.89,5.55,6.85c0,4.68,5.5,7.09,7.3,11.55a31.79,31.79,0,0,0-4.08-.51,11.76,11.76,0,0,0-5.49,1A5.24,5.24,0,0,0,0,23.18a4.83,4.83,0,0,0,1.56,4c2.09,2,5.05,2.17,6.91,2.22a14.56,14.56,0,0,0,2.46-.13c4.34-.61,8.12-3.18,8.73-7.91h1.5a13.33,13.33,0,0,0-.09,1.49c0,3.77,2.39,6.05,6,6.05a11.83,11.83,0,0,0,10-5.07,4.52,4.52,0,0,0,0,.51,4.18,4.18,0,0,0,4.1,4.57c2.24.16,4.62-.46,7.16-4,.19,2.78,1.92,3.84,4.07,4s4.13-.22,6.66-3.54l-.61,2.87a.38.38,0,0,0,.37.46h4.61a.54.54,0,0,0,.54-.43l2.47-11.6a7.34,7.34,0,0,1,.72-2.06,2.44,2.44,0,0,1,2.18-1.61c1.06,0,1.52.76,1.52,1.92,0,2.44-1.73,7.13-1.73,9.71,0,2.18,1.18,4.31,4.53,4.31,1.63,0,3.87-.52,6-4a4.72,4.72,0,0,0,4.88,4,6.91,6.91,0,0,0,5.71-3.55,3.77,3.77,0,0,0,3.76,3.55c2.45.13,4.7-1.28,5.62-4.27A.3.3,0,0,0,99.08,24.29ZM31.53,11.64c.66,0,1.1.52,1.1,1.47A6.27,6.27,0,0,1,27.17,19C27.93,15.23,29.57,11.64,31.53,11.64Zm-21,14.66a5.1,5.1,0,0,1-2.89.14,2.67,2.67,0,0,1-2.18-2.86A3.22,3.22,0,0,1,8,21a12.33,12.33,0,0,1,5.38,0c0,.1,0,.19,0,.28C13.42,23.8,12.27,25.61,10.53,26.3ZM91.85,13.83l-1.72,8c-.46,2.21-2.08,3.36-3.19,3.36-.69,0-1.92,0-1.92-3,0-3.58,1.89-10.17,5.15-10.17A1.68,1.68,0,0,1,91.85,13.83Z"/>
    <path class="cls-1" d="M55,7a3,3,0,1,0-3-3A3,3,0,0,0,55,7Z"/>
</svg>